<svg width="330" height="200" viewBox="0 0 330 200" fill="none" xmlns="http://www.w3.org/2000/svg">
<rect width="330" height="200" fill="#1E2028"/>
<!-- Windows taskbar -->
<rect x="20" y="160" width="290" height="25" rx="4" fill="#282C33" stroke="#ABB2BF" stroke-width="1"/>
<!-- Start button -->
<rect x="25" y="165" width="40" height="15" rx="2" fill="#C778DD"/>
<rect x="28" y="167" width="6" height="6" rx="1" fill="#FFFFFF"/>
<rect x="36" y="167" width="6" height="6" rx="1" fill="#FFFFFF"/>
<rect x="44" y="167" width="6" height="6" rx="1" fill="#FFFFFF"/>
<rect x="52" y="167" width="6" height="6" rx="1" fill="#FFFFFF"/>
<!-- App icons in taskbar -->
<rect x="75" y="165" width="15" height="15" rx="2" fill="#98C379"/>
<rect x="95" y="165" width="15" height="15" rx="2" fill="#E06C75"/>
<rect x="115" y="165" width="15" height="15" rx="2" fill="#ABB2BF"/>
<!-- Start menu popup -->
<rect x="25" y="60" width="120" height="95" rx="6" fill="#282C33" stroke="#C778DD" stroke-width="2"/>
<!-- Menu items -->
<rect x="35" y="70" width="100" height="12" rx="2" fill="#C778DD" fill-opacity="0.2"/>
<rect x="35" y="87" width="100" height="12" rx="2" fill="#98C379" fill-opacity="0.2"/>
<rect x="35" y="104" width="100" height="12" rx="2" fill="#E06C75" fill-opacity="0.2"/>
<rect x="35" y="121" width="100" height="12" rx="2" fill="#ABB2BF" fill-opacity="0.2"/>
<rect x="35" y="138" width="100" height="12" rx="2" fill="#C778DD" fill-opacity="0.2"/>
<!-- Menu icons -->
<circle cx="42" cy="76" r="3" fill="#C778DD"/>
<circle cx="42" cy="93" r="3" fill="#98C379"/>
<circle cx="42" cy="110" r="3" fill="#E06C75"/>
<circle cx="42" cy="127" r="3" fill="#ABB2BF"/>
<circle cx="42" cy="144" r="3" fill="#C778DD"/>
<!-- Portable indicator -->
<rect x="200" y="40" width="80" height="20" rx="10" fill="#C778DD" fill-opacity="0.3" stroke="#C778DD"/>
</svg>
