<svg width="330" height="200" viewBox="0 0 330 200" fill="none" xmlns="http://www.w3.org/2000/svg">
<rect width="330" height="200" fill="#1E2028"/>
<!-- Browser window -->
<rect x="30" y="30" width="270" height="140" rx="8" fill="#282C33" stroke="#ABB2BF" stroke-width="1"/>
<rect x="30" y="30" width="270" height="25" rx="8" fill="#1E2028"/>
<circle cx="45" cy="42" r="3" fill="#FF5F56"/>
<circle cx="58" cy="42" r="3" fill="#FFBD2E"/>
<circle cx="71" cy="42" r="3" fill="#27CA3F"/>
<!-- Portfolio content -->
<rect x="50" y="70" width="230" height="80" rx="4" fill="#1E2028"/>
<!-- Header -->
<rect x="60" y="80" width="80" height="8" rx="2" fill="#C778DD"/>
<!-- Navigation -->
<rect x="160" y="80" width="20" height="4" rx="2" fill="#ABB2BF"/>
<rect x="185" y="80" width="25" height="4" rx="2" fill="#ABB2BF"/>
<rect x="215" y="80" width="30" height="4" rx="2" fill="#ABB2BF"/>
<rect x="250" y="80" width="20" height="4" rx="2" fill="#ABB2BF"/>
<!-- Profile section -->
<circle cx="80" cy="110" r="15" fill="#C778DD" fill-opacity="0.3"/>
<rect x="105" y="100" width="60" height="6" rx="3" fill="#C778DD"/>
<rect x="105" y="110" width="80" height="4" rx="2" fill="#ABB2BF"/>
<rect x="105" y="118" width="70" height="4" rx="2" fill="#ABB2BF"/>
<!-- Projects grid -->
<rect x="200" y="100" width="25" height="20" rx="2" fill="#98C379" fill-opacity="0.2" stroke="#98C379"/>
<rect x="230" y="100" width="25" height="20" rx="2" fill="#E06C75" fill-opacity="0.2" stroke="#E06C75"/>
<rect x="260" y="100" width="25" height="20" rx="2" fill="#C778DD" fill-opacity="0.2" stroke="#C778DD"/>
<!-- Code elements -->
<rect x="60" y="130" width="40" height="4" rx="2" fill="#98C379"/>
<rect x="105" y="130" width="30" height="4" rx="2" fill="#E06C75"/>
<rect x="140" y="130" width="35" height="4" rx="2" fill="#C778DD"/>
</svg>
