<svg width="330" height="200" viewBox="0 0 330 200" fill="none" xmlns="http://www.w3.org/2000/svg">
<rect width="330" height="200" fill="#1E2028"/>
<!-- Browser window frame -->
<rect x="20" y="20" width="290" height="160" rx="8" fill="#282C33" stroke="#ABB2BF" stroke-width="1"/>
<rect x="20" y="20" width="290" height="30" rx="8" fill="#1E2028"/>
<circle cx="35" cy="35" r="4" fill="#FF5F56"/>
<circle cx="50" cy="35" r="4" fill="#FFBD2E"/>
<circle cx="65" cy="35" r="4" fill="#27CA3F"/>
<!-- Template grid -->
<rect x="40" y="70" width="80" height="60" rx="4" fill="#C778DD" fill-opacity="0.2" stroke="#C778DD"/>
<rect x="130" y="70" width="80" height="60" rx="4" fill="#98C379" fill-opacity="0.2" stroke="#98C379"/>
<rect x="220" y="70" width="80" height="60" rx="4" fill="#E06C75" fill-opacity="0.2" stroke="#E06C75"/>
<!-- Template previews -->
<rect x="45" y="75" width="70" height="8" rx="2" fill="#C778DD"/>
<rect x="45" y="88" width="50" height="4" rx="2" fill="#ABB2BF"/>
<rect x="45" y="95" width="60" height="4" rx="2" fill="#ABB2BF"/>
<rect x="135" y="75" width="70" height="8" rx="2" fill="#98C379"/>
<rect x="135" y="88" width="50" height="4" rx="2" fill="#ABB2BF"/>
<rect x="135" y="95" width="60" height="4" rx="2" fill="#ABB2BF"/>
<rect x="225" y="75" width="70" height="8" rx="2" fill="#E06C75"/>
<rect x="225" y="88" width="50" height="4" rx="2" fill="#ABB2BF"/>
<rect x="225" y="95" width="60" height="4" rx="2" fill="#ABB2BF"/>
<!-- Shopping cart icon -->
<path d="M280 150 L285 150 L287 160 L275 160 Z" fill="#C778DD"/>
<circle cx="277" cy="165" r="2" fill="#C778DD"/>
<circle cx="285" cy="165" r="2" fill="#C778DD"/>
</svg>
