<svg width="350" height="350" viewBox="0 0 350 350" xmlns="http://www.w3.org/2000/svg">
    <!-- Background shapes -->
    <rect x="50" y="50" width="80" height="80" fill="none" stroke="#C778DD" stroke-width="2" opacity="0.5"/>
    <rect x="220" y="220" width="80" height="80" fill="none" stroke="#C778DD" stroke-width="2" opacity="0.5"/>
    
    <!-- Central element -->
    <rect x="125" y="125" width="100" height="100" fill="#1E2028" stroke="#ABB2BF" stroke-width="2"/>
    
    <!-- Dots pattern -->
    <circle cx="70" cy="70" r="3" fill="#C778DD"/>
    <circle cx="90" cy="70" r="3" fill="#C778DD"/>
    <circle cx="110" cy="70" r="3" fill="#C778DD"/>
    <circle cx="70" cy="90" r="3" fill="#C778DD"/>
    <circle cx="90" cy="90" r="3" fill="#C778DD"/>
    <circle cx="110" cy="90" r="3" fill="#C778DD"/>
    
    <circle cx="240" cy="240" r="3" fill="#98C379"/>
    <circle cx="260" cy="240" r="3" fill="#98C379"/>
    <circle cx="280" cy="240" r="3" fill="#98C379"/>
    <circle cx="240" cy="260" r="3" fill="#98C379"/>
    <circle cx="260" cy="260" r="3" fill="#98C379"/>
    <circle cx="280" cy="260" r="3" fill="#98C379"/>
    
    <!-- Code symbols -->
    <text x="175" y="180" font-family="monospace" font-size="48" fill="#C778DD" text-anchor="middle">&lt;/&gt;</text>
    
    <!-- Decorative lines -->
    <line x1="50" y1="175" x2="100" y2="175" stroke="#ABB2BF" stroke-width="1" opacity="0.3"/>
    <line x1="250" y1="175" x2="300" y2="175" stroke="#ABB2BF" stroke-width="1" opacity="0.3"/>
    <line x1="175" y1="50" x2="175" y2="100" stroke="#ABB2BF" stroke-width="1" opacity="0.3"/>
    <line x1="175" y1="250" x2="175" y2="300" stroke="#ABB2BF" stroke-width="1" opacity="0.3"/>
</svg>
